<?xml version="1.0" encoding="UTF-8"?>
<svg xmlns="http://www.w3.org/2000/svg" id="Layer_1" data-name="Layer 1" viewBox="59 155 956 249">
  <defs>
    <clipPath id="clippath">
      <path d="M945.21 362.15a8.136 8.136 0 0 1-4.06-1.31c-1.31-.7-2.37-1.8-3-3.15l-13.37-25.7h-98.36L813 357.7a9.02 9.02 0 0 1-3.14 3.15c-1.25.83-2.7 1.28-4.2 1.31H750.3c-3.5 0-6.04-1.22-7.61-3.67-1.57-2.45-1.49-5.16.26-8.13l108.9-190.91a7.39 7.39 0 0 1 3.15-2.89 8.58 8.58 0 0 1 3.93-1.31h46.41c1.41.06 2.77.51 3.94 1.31 1.29.77 2.38 1.86 3.15 3.15l101.49 190.9c1.39 2.98 1.39 5.65 0 8-1.39 2.35-3.84 3.53-7.35 3.54h-61.36Zm-94.65-76.31h50.33L875.63 237l-25.07 48.84Zm-231-34.43L678.98 357s3 4.71 6.8 4.71h35.6s3.83.33 7.66-6.49l107.28-188.19s5.15-11.61-8.66-11.61h-55.85s-4.24 0-7.72 5.81l-58.14 98-60.35-98.98c-2.88-4.86-6.94-5-6.94-5h-46.75c-1.42.15-2.82.49-4.16 1 0 0 10.15 3.55 21.8 16.47 6 6.7 11.87 18.52 13.2 23.68a88.405 88.405 0 0 1 3.25 26.73c-.33 13-6.54 28.18-6.54 28.18l.1.1Zm-412.37-96c72.54.11 83.3 78.08 50.35 106-21.42 18.17-52.68 25-70.88 26-12.53.63-53.08 0-53.08 0l-.74 67c0 7.08-7.41 7.41-7.41 7.41H67c-7.19 0-8-8-8-8V163.34a7.66 7.66 0 0 1 .75-3.39 8.175 8.175 0 0 1 3.76-3.5c1.45-.71 3.05-1.07 4.67-1.07l4-.07 4.62-.06h124.81l5.58.16ZM132 202.68v39.15h38.35s32.61 1.29 32.61-21.67c0 0 .3-17.48-30-17.48H132Zm503.72 147.78-48-80.7c3.94-2.37 7.69-5.04 11.21-8 32.94-28 22.18-105.93-50.36-106l-5.57-.18H413.54l-4 .07c-1.61.01-3.2.39-4.64 1.1-1.6.73-2.92 1.96-3.77 3.5a7.66 7.66 0 0 0-.75 3.39v42.7h20.8c.56 0 1.12.06 1.67.17h10.08c5.53 0 9.41 1.65 11.52 4.9 3.17 4.88.63 11 .33 11.63l-.16.32-44.23 77.11v53.62s.79 8 8 8h58.43s7.41-.33 7.41-7.41l.74-67s18.81.29 34.77.28c7.2.34 11.48 7 11.48 7l33.45 62.16c2.77 5.1 7.28 4.88 7.28 4.88h66c14.2 0 7.77-11.54 7.77-11.54Zm-124-108.32h-38.36v-39.15h41c30.26 0 30 17.48 30 17.48-.04 22.96-32.65 21.67-32.65 21.67ZM266.83 397.25c-.44 1.1-1 3.57-.14 4.88.72 1.1 2.73 1.7 5.65 1.7h10.77l.35.07c.2.05.4.08.61.09h46.62c.35 0 2.41-.44 4.07-3.24l103.68-180.68c.44-1.11 1-3.56.13-4.86-.72-1.1-2.73-1.7-5.65-1.7h-10.77l-.35-.07c-.2-.05-.41-.08-.62-.09h-46.61c-.35 0-2.41.44-4.07 3.24l-33.95 54.76-31.88-53c-1.79-3-4-3.26-4-3.26h-17c.33 6.42-.16 12.86-1.45 19.16-2.92 14.15-9.9 26.55-19.69 34.95l37.34 68.59-33.04 59.46Z" style="fill:none;stroke-width:0"/>
    </clipPath>
    <style>
      .cls-3,.cls-4{stroke-width:0}.cls-3{fill:#316a99}.cls-4{fill:#ffd43d}
    </style>
  </defs>
  <g style="clip-path:url(#clippath)">
    <path d="M0 98.25h1064.96v362.79H0z" class="cls-3"/>
    <g id="path1950">
      <path d="m273.27 646.34-30.44-241.85v-.45c0-19.68 17.7-36.84 33.32-52 7.58-7.35 14.74-14.29 19-20.53 25-37 65.71-59 109-59h292.66c37.76 0 75.57-16.08 103.72-44.12 28.72-28.6 44.54-65.74 44.56-104.57L842.95 7.25h227.26v639.09H273.27Z" class="cls-4"/>
      <path d="M1063 14.5v624.59H279.67l-29.59-235.05c0-25.29 37.52-48.44 51-68.45 22.5-33.33 60.47-55.82 103-55.82h292.73c82.86 0 155.52-71.3 155.52-156l-2-109.26H1063M1077.5 0H835.56l.27 14.77 2 109.12c-.03 18.66-3.93 37.11-11.44 54.19a146.076 146.076 0 0 1-31 45.18 146.153 146.153 0 0 1-45.09 30.73 133.856 133.856 0 0 1-53.49 11.25H404.15c-45.74 0-88.75 23.26-115.05 62.21-3.79 5.62-10.69 12.3-18 19.38-16.65 16.14-35.52 34.44-35.52 57.18v.91l.11.9 29.59 235.05 1.6 12.69h810.58V0h.04Z" style="stroke-width:0;fill:#eee"/>
    </g>
    <path d="m846.79 149.92-49.67 99.66 22.67 4.67 63.33-93v-13.67l-36.33 2.34z" class="cls-4"/>
    <path d="m813.6 145.65.66 38.66 4.88 7.65 28.12-40.98-11.33-7-22.33 1.67z" class="cls-3"/>
  </g>
  <path id="SVGID-2" d="M905.34 157.25c1.03.06 2.03.41 2.88 1 1 .6 1.85 1.43 2.46 2.43l101.45 190.83c1.08 2.34 1.1 4.34.07 6.09-.65 1.1-1.95 2.56-5.63 2.56h-61.36a6.24 6.24 0 0 1-3.05-1 5.03 5.03 0 0 1-2.19-2.21v-.14l-13.37-25.7-.56-1.08H825.2l-.56 1.08-13.36 25.66c-.61.99-1.45 1.82-2.45 2.41-.93.63-2.01.97-3.13 1h-55.4c-2.84 0-4.72-.87-5.92-2.75-.73-1.13-1.49-3 .32-6.06l108.89-190.93c.58-.87 1.39-1.56 2.34-2 .9-.59 1.93-.96 3-1.06h46.41m-58.05 130.46h56.89l-1.51-2.92-25.26-48.84-1.78-3.45-1.77 3.45-25.07 48.84-1.5 2.91M638.62 157.25c.2 0 3.07.29 5.27 4l60.35 99 1.73 2.84 1.7-2.86 58.14-97.98c2.78-4.66 5.9-4.83 6-4.83h55.85c2.44 0 5.61.41 6.9 2.38s.44 5.17 0 6.33l-107.3 188.12c-2.83 5-5.42 5.44-5.78 5.47h-35.73c-2.18 0-4.43-2.74-5.09-3.74l-59-104.87c1.38-3.6 6-16.47 6.31-27.93.3-9.21-.8-18.41-3.28-27.28-1.39-5.35-7.39-17.56-13.69-24.52a73.547 73.547 0 0 0-16.78-14.13h44.4m-556.26 0h119.2l5.59.11c30.38 0 53.06 14.41 62.21 39.42 8.41 23 2.88 49.5-13.15 63.1-20.31 17.23-50.23 24.5-69.68 25.48-3.66.18-10.13.28-19.23.28-15.53 0-33.54-.28-33.72-.28h-2v2l-.74 67c0 4.87-4.77 5.36-5.46 5.41H67c-5 0-5.86-5.17-6-6.09V163.34c-.02-.86.16-1.71.53-2.49a6.305 6.305 0 0 1 2.83-2.6c1.2-.59 2.53-.9 3.87-.89h.19l3.77-.06h10.18M130 243.83h41.28c6.33.02 12.62-1.08 18.57-3.24 9.89-3.87 15.11-10.94 15.11-20.41-.22-4.21-2.03-8.19-5.07-11.12-5.48-5.57-14.52-8.39-26.89-8.39h-43v43.16m293.75-86.27h119.2l5.59.11c30.38 0 53.06 14.41 62.21 39.42 8.41 23 2.88 49.5-13.15 63.1-3.46 2.9-7.13 5.53-11 7.85l-1.69 1 1 1.7 48 80.67c.57 1 1.88 4.32.73 6.28s-4.28 2.26-6.76 2.26h-66.04c-.34 0-3.41-.11-5.44-3.83l-33.45-62.16v-.14c-.2-.31-4.93-7.52-13.07-7.91h-1.12c-15.53 0-33.53-.28-33.71-.28h-2v2l-.74 67c0 4.87-4.77 5.36-5.46 5.41h-58.49c-5 0-5.86-5.17-6-6.08v-53l44-76.65.16-.32c.35-.78 3.26-7.77-.49-13.53-2.51-3.85-6.95-5.81-13.2-5.81H423c-.61-.11-1.22-.17-1.84-.17h-18.8v-40.83c-.02-.86.17-1.7.53-2.48a6.231 6.231 0 0 1 2.82-2.6c1.2-.59 2.53-.9 3.87-.89h.15l3.81-.07h10.18m47.61 86.58h41.28c6.33.02 12.62-1.08 18.57-3.24 9.89-3.87 15.11-10.94 15.11-20.41-.22-4.21-2.03-8.19-5.07-11.12-5.48-5.57-14.52-8.39-26.89-8.39h-43v43.11m-50.23-28.8.29.05.35.07h11.2c2.77 0 3.83.6 4 .8.2.97.1 1.98-.28 2.9L333 399.78a4.434 4.434 0 0 1-2.53 2.26h-46.31l-.3-.05-.35-.07h-11.2c-2.77 0-3.83-.6-4-.8-.2-.98-.1-2 .29-2.92l33-59.35.53-1-.53-1-36.6-67.17c9.48-8.65 16.25-21 19.13-35 1.18-5.79 1.7-11.69 1.55-17.59h14.73c1.1.42 1.99 1.24 2.5 2.29l31.88 53 1.69 2.81 1.73-2.78 34-54.8a4.434 4.434 0 0 1 2.53-2.26h46.36m484.24-60.1h-46.41c-1.4.11-2.75.56-3.93 1.31a7.39 7.39 0 0 0-3.15 2.89L743 350.35c-1.75 2.97-1.83 5.68-.26 8.13s4.11 3.67 7.61 3.67h55.35c1.5-.03 2.95-.48 4.2-1.31a9.02 9.02 0 0 0 3.14-3.15l13.38-25.7h98.34l13.37 25.7a6.882 6.882 0 0 0 3 3.15c1.21.79 2.61 1.24 4.06 1.31h61.36c3.5 0 5.95-1.18 7.35-3.54 1.4-2.36 1.4-5.03 0-8l-101.47-190.9a9.133 9.133 0 0 0-3.15-3.15 7.533 7.533 0 0 0-3.94-1.31Zm-54.78 130.59L875.63 237l25.26 48.84h-50.33Zm-211.9-130.59h-46.75c-1.42.15-2.82.49-4.16 1 0 0 10.15 3.55 21.8 16.47 6 6.7 11.87 18.52 13.2 23.68a88.405 88.405 0 0 1 3.25 26.73c-.33 13-6.54 28.18-6.54 28.18l.11.11 59.42 105.59s3 4.71 6.8 4.71h35.69c.59 0 4.08-.28 7.57-6.49l107.27-188.2s5.15-11.61-8.66-11.61h-55.85c-.09 0-4.28 0-7.72 5.81l-58.14 98-60.35-98.98c-2.88-4.86-6.94-5-6.94-5Zm-556.3 0h-10.2l-4 .07c-1.62.01-3.21.4-4.65 1.12-1.6.73-2.91 1.96-3.76 3.5a7.538 7.538 0 0 0-.75 3.4v190.44s.79 8 8 8h58.41s7.41-.33 7.41-7.41l.74-67s18 .28 33.75.28c7.86 0 15.15-.07 19.33-.28 18.19-.92 49.46-7.79 70.88-26 32.94-28 22.18-105.93-50.35-106l-5.56-.12H82.36ZM132 241.83v-39.15h41c30.26 0 30 17.48 30 17.48 0 20.64-26.35 21.68-31.68 21.68H132Zm291.75-86.27h-10.21l-4 .07c-1.61.02-3.2.4-4.64 1.12-1.6.73-2.92 1.96-3.77 3.5a7.66 7.66 0 0 0-.75 3.39v42.7h20.8c.56 0 1.12.06 1.67.17h10.08c5.53 0 9.41 1.65 11.52 4.9 3.17 4.88.63 11 .33 11.63l-.16.32-44.23 77.11v53.62s.79 8 8 8h58.43s7.41-.33 7.41-7.41l.74-67s18 .28 33.74.28h1c7.2.34 11.48 7 11.48 7l33.45 62.16c2.55 4.7 6.58 4.88 7.2 4.88H628c14.2 0 7.76-11.54 7.76-11.54l-48-80.7c3.94-2.37 7.69-5.04 11.21-8 32.94-28 22.18-105.93-50.35-106l-5.62-.18H430.32l-6.57-.02Zm49.61 86.58v-39.15h41c30.26 0 30 17.48 30 17.48 0 20.64-26.35 21.68-31.68 21.68h-39.32Zm-52.18-28.8h-46.61c-.35 0-2.41.44-4.07 3.24l-33.95 54.77-31.88-53c-1.79-3-4-3.26-4-3.26h-17c.33 6.42-.16 12.86-1.45 19.16-2.92 14.15-9.9 26.55-19.69 34.95l37.34 68.59-33 59.47c-.44 1.1-1 3.57-.14 4.88.72 1.1 2.73 1.7 5.65 1.7h10.77l.35.07c.2.05.4.08.61.09h46.62c.35 0 2.41-.44 4.07-3.24l103.64-180.69c.44-1.11 1-3.56.13-4.86-.72-1.1-2.73-1.7-5.65-1.7h-10.77l-.35-.07c-.2-.05-.41-.08-.62-.09Z" style="fill:#231f20;stroke-width:0"/>
</svg>
